<svg width="16" height="16" viewBox="0 0 16 16" fill="none" xmlns="http://www.w3.org/2000/svg">
<path d="M8.00387 15.9923C3.61914 15.9923 0 12.3731 0 7.99613C0 3.61914 3.62687 0 8.0116 0C12.3886 0 16 3.61914 16 7.99613C16 12.3731 12.3809 15.9923 8.00387 15.9923ZM8.00387 14.3992C11.5534 14.3992 14.3915 11.5457 14.3915 7.99613C14.3915 4.44659 11.5534 1.60077 8.0116 1.60077C4.46206 1.60077 1.60851 4.44659 1.60077 7.99613C1.59304 11.5457 4.45433 14.3992 8.00387 14.3992ZM7.18415 10.4708L4.22233 7.32334C3.96713 7.04495 3.9594 6.63509 4.19913 6.39536C4.46979 6.13243 4.88738 6.1247 5.13485 6.38763L8.00387 9.43451L10.8729 6.38763C11.1203 6.1247 11.5457 6.1247 11.8086 6.39536C12.0406 6.64282 12.0406 7.04495 11.7854 7.31561L8.82359 10.463C8.32866 10.9966 7.67907 10.9966 7.18415 10.4708Z" fill="black"/>
</svg>
