<svg width="31" height="32" viewBox="0 0 31 32" fill="none" xmlns="http://www.w3.org/2000/svg">
<path d="M24.0115 19.1908L24.0051 19.2072L23.9995 19.2238C23.2941 21.3255 21.5195 22.8633 19.3015 23.7257C17.0798 24.5896 14.4933 24.7395 12.3195 24.1207C10.1766 23.5108 8.88439 22.2853 8.2771 20.7139C7.65973 19.1164 7.71792 17.0733 8.47888 14.8063C9.24007 12.5384 10.4802 10.7152 12.0164 9.61807C13.5271 8.5391 15.3713 8.12471 17.4865 8.72675C19.8253 9.39244 22.1351 10.2706 23.5232 11.8236C24.8416 13.2986 25.438 15.5172 24.0115 19.1908Z" stroke="black" stroke-width="1.5"/>
<path d="M23.4312 7.80604C24.378 8.0755 25.5559 8.24024 26.012 6.63626C26.3343 5.67624 25.5187 4.67679 24.572 4.40733C23.6252 4.13786 22.9058 4.70042 22.5835 5.66044C22.2613 6.62046 22.4845 7.53657 23.4312 7.80604Z" fill="black"/>
<rect x="0.5" y="0.5" width="29.9895" height="31" rx="8.5" stroke="black"/>
</svg>
