<svg width="33" height="35" viewBox="0 0 33 35" fill="none" xmlns="http://www.w3.org/2000/svg">
<path d="M19.0445 0.0778847C18.0029 0.335747 16.7799 0.844315 15.6845 1.46749C13.6484 2.62072 12.0826 3.83125 10.5975 5.39993L9.81795 6.21651L9.32067 6.13055C8.5949 6.00878 7.0493 6.08758 6.4109 6.28097C4.97281 6.71791 4.07233 7.29811 2.92321 8.51581C1.62624 9.89109 0.658562 11.5457 0.188161 13.1932C0.0336001 13.7376 0.00672002 13.9668 0 14.6974C0 15.822 0.1344 16.2231 0.725762 16.8463C1.50528 17.6772 2.70817 18.1213 4.93921 18.4221L5.24161 18.4651L5.19457 18.9092C5.13409 19.4536 5.22817 20.3561 5.40289 20.836C5.4701 21.0366 5.74562 21.5881 6.00098 22.0681C6.72674 23.4147 6.77378 23.5508 6.77378 24.2599C6.76706 24.7756 6.70658 25.1195 6.35042 26.5162C6.11522 27.4188 5.8397 28.5219 5.72546 28.966C5.57762 29.5461 5.49026 29.7825 5.40289 29.8112C5.34241 29.8327 4.85857 29.9401 4.33441 30.0547C3.22561 30.2983 2.66113 30.5561 2.18401 31.0289C1.48512 31.7237 1.13568 33.1849 1.52544 33.7866C1.90177 34.3883 2.61409 34.5244 5.36929 34.5315C7.33826 34.5387 7.39202 34.5315 7.7213 34.374C7.90946 34.2808 8.13794 34.1304 8.23202 34.0301C8.38658 33.8726 8.41346 33.8654 8.45378 33.9657C8.51426 34.1519 9.16611 34.4241 9.71043 34.4957C10.6848 34.6318 12.1901 34.6533 14.7773 34.5745C17.8752 34.4814 20.9799 34.4742 22.8413 34.5602C24.4676 34.639 26.0266 34.5674 26.665 34.3954C27.2497 34.2307 27.6865 33.9155 27.9418 33.4714C28.1233 33.1634 28.1434 33.0631 28.1367 32.6119C28.1367 32.2824 28.0695 31.8956 27.962 31.516C27.8679 31.1936 27.7671 30.7782 27.7402 30.5991L27.6932 30.2624L28.0964 30.4845C28.9834 30.9572 30.1057 31.079 30.8852 30.7853C32.33 30.2481 33.1969 28.7296 32.9617 27.1537C32.7735 25.8358 31.779 24.7398 30.5358 24.4605L30.1527 24.3817L30.1124 23.515C29.9914 21.0939 29.3262 19.0381 28.0561 17.1686C27.5521 16.4165 26.45 15.2776 25.6974 14.7189C23.5537 13.1287 21.8737 12.6631 19.0781 12.878C18.3793 12.9353 17.4116 12.9783 16.9277 12.9783C15.866 12.9711 15.4896 12.8637 15.0596 12.4124C14.7908 12.1331 14.4548 11.5171 14.3943 11.2019C14.3674 11.03 14.8916 10.7077 16.37 9.96272C17.6602 9.31805 17.9223 9.21061 19.9181 8.50148C21.5578 7.92128 22.3508 7.5703 22.8346 7.21932C23.5873 6.66777 24.0241 5.90134 24.0308 5.12058C24.0442 4.02465 23.305 3.42297 21.8065 3.3012L21.1882 3.25106L21.3226 3.10064C21.625 2.74965 21.7661 2.32704 21.7661 1.76833C21.7594 0.994736 21.4772 0.493332 20.8589 0.149513C20.5633 -0.0152359 19.562 -0.0510483 19.0445 0.0778847ZM20.3751 1.60358C20.6036 1.94024 20.0593 2.54909 18.9101 3.23673C18.5943 3.43013 17.6736 3.92437 16.8605 4.34698C15.4023 5.09909 14.3808 5.72227 12.8823 6.75373L12.1229 7.27662L11.7197 7.01875C11.498 6.88266 11.3165 6.7394 11.3165 6.71075C11.3165 6.63912 12.5127 5.47156 13.0973 4.97732C15.7316 2.74965 19.8509 0.837154 20.3751 1.60358ZM22.3709 4.87704C22.6196 4.95583 22.6397 4.98449 22.6263 5.19937C22.6129 5.51454 22.2433 5.91566 21.6653 6.238C21.4234 6.37409 20.3281 6.81103 19.2327 7.20499C17.1024 7.97142 16.4842 8.24361 14.9319 9.08168L13.9373 9.6189L13.6416 9.06735C13.4736 8.75935 13.3056 8.49432 13.2653 8.46567C13.2317 8.44418 13.1981 8.38687 13.1981 8.35106C13.1981 8.19347 15.3418 6.82536 16.8 6.0446C17.9223 5.45008 19.1185 5.04179 20.3885 4.8269C20.7783 4.76243 22.1223 4.79109 22.3709 4.87704ZM9.31395 7.59895C11.1888 7.98575 12.5194 9.2321 12.9024 10.9799C13.0637 11.7033 13.0032 12.8207 12.7748 13.4582C12.5328 14.1315 12.1767 14.6974 11.6525 15.2346C10.5303 16.395 9.09219 16.9108 6.7805 17.0039C4.27393 17.097 2.10337 16.524 1.53216 15.6143C1.09536 14.9123 1.4112 13.2648 2.29153 11.7105C3.38689 9.77648 4.80481 8.39404 6.2765 7.84249C7.17698 7.50583 8.37986 7.40555 9.31395 7.59895ZM14.3069 13.6588C14.3808 13.7877 14.8311 14.0599 15.2276 14.2175C15.7316 14.4181 16.753 14.5112 17.6333 14.4395C18.0231 14.4109 18.9773 14.3608 19.7501 14.3321C21.0337 14.2891 21.2218 14.3034 21.8535 14.4395C22.9354 14.6831 23.8964 15.1487 24.9783 15.9724C26.9943 17.5053 28.3383 19.9478 28.6609 22.6483C28.7751 23.6654 28.7079 25.4919 28.5198 26.2655C28.4391 26.6022 28.3383 26.9174 28.298 26.9675C28.2577 27.0248 28.0158 27.1752 27.7604 27.3185C27.1892 27.6193 26.6986 28.0992 26.4903 28.5433C26.3492 28.8442 26.3358 28.9803 26.3358 29.847C26.3358 30.6994 26.3626 30.8999 26.5306 31.5303C26.6382 31.9242 26.7322 32.3755 26.7322 32.5331C26.739 32.8196 26.739 32.8196 26.3694 32.9557C26.0468 33.0775 25.8116 33.0918 24.4541 33.0918C23.6074 33.0846 21.0941 33.0918 18.8765 33.0918C10.7923 33.1061 10.0061 33.1061 9.82467 33.0488C9.46179 32.9414 9.62307 32.4973 10.1338 32.1749C11.2829 31.4586 14.3338 30.9931 17.9357 30.9931C18.601 30.9931 19.2529 30.9572 19.3873 30.9214C19.7367 30.8211 19.8845 30.6134 19.8845 30.2338C19.8845 29.7037 19.73 29.6035 18.5271 29.3527C16.6656 28.9588 15.6845 28.4789 14.8042 27.5549C14.4077 27.1322 14.2263 26.8744 14.0045 26.3873C13.7357 25.8071 13.7088 25.714 13.7088 25.2054C13.7156 23.472 15.2074 22.3546 17.7341 22.2113C18.1441 22.1898 18.5741 22.1397 18.6884 22.0967C19.1857 21.9391 19.3268 21.3589 18.9841 20.9506L18.7892 20.7143L18.0769 20.7286C15.409 20.7787 13.5744 21.7171 12.674 23.4863C12.1431 24.5393 10.6512 27.1895 10.1674 27.9488C9.91875 28.3428 9.42147 29.0233 9.07203 29.453C8.40674 30.2624 7.9229 31.1578 7.6541 32.0675C7.46594 32.6907 7.29794 32.9915 7.1165 33.0417C6.8141 33.1204 2.92993 33.0417 2.84257 32.9485C2.72833 32.8268 2.83585 32.4471 3.05761 32.1821C3.30625 31.8813 3.73633 31.6807 4.46209 31.5303C6.06818 31.2079 6.42434 31.0289 6.7133 30.4272C6.80066 30.2266 7.0829 29.2668 7.32482 28.2926C8.2253 24.6897 8.17154 24.9476 8.13794 24.1167C8.09762 23.207 7.96322 22.7557 7.44578 21.8174C6.76706 20.5853 6.59234 20.1484 6.55874 19.5825C6.5453 19.296 6.56546 18.9379 6.60578 18.7731L6.6797 18.4794L7.36514 18.4365C9.17283 18.3147 10.5303 17.8849 11.6794 17.0683C12.7344 16.3162 13.608 15.1988 13.9911 14.11C14.1725 13.5943 14.2263 13.5155 14.3069 13.6588ZM30.603 26.0578C31.7319 26.6022 31.947 28.1136 31.0196 29.0018C30.6702 29.3384 30.1124 29.5247 29.6487 29.4602C29.2791 29.4029 28.6004 29.1379 28.2913 28.923L28.0964 28.7869L28.513 28.5648C29.4068 28.0849 29.6286 27.6981 29.9578 26.1008C30.0116 25.8644 30.1729 25.8501 30.603 26.0578ZM13.346 28.0204C13.7223 28.5433 14.0448 28.8728 14.5959 29.2954L15.0125 29.6178L14.5623 29.6679C12.7613 29.8398 11.2224 30.1335 10.4295 30.4415C10.1741 30.5346 9.97251 30.6063 9.97251 30.5919C9.97251 30.5776 10.1405 30.3627 10.3488 30.1192C10.8125 29.5676 11.4845 28.5433 12.096 27.4546L12.5597 26.6308L12.7949 27.1108C12.9226 27.3758 13.1712 27.7841 13.346 28.0204Z" fill="white"/>
<path d="M5.57077 11.9182C5.33557 11.9827 4.98613 12.305 4.89205 12.5557C4.58965 13.3222 5.16085 14.1602 5.92022 14.0671C7.1231 13.9238 7.14326 12.0973 5.94038 11.9182C5.8127 11.8967 5.64469 11.8967 5.57077 11.9182Z" fill="white"/>
</svg>
