<svg width="16" height="16" viewBox="0 0 16 16" fill="none" xmlns="http://www.w3.org/2000/svg">
<path d="M7.99613 -7.82013e-05C12.3809 -7.82013e-05 16 3.61906 16 7.99605C16 12.373 12.3731 15.9922 7.9884 15.9922C3.61141 15.9922 0 12.373 0 7.99605C0 3.61906 3.61914 -7.82013e-05 7.99613 -7.82013e-05ZM7.99613 1.59296C4.44659 1.59296 1.60851 4.44651 1.60851 7.99605C1.60851 11.5456 4.44659 14.3914 7.9884 14.3914C11.5379 14.3914 14.3915 11.5456 14.3992 7.99605C14.407 4.44651 11.5457 1.59296 7.99613 1.59296ZM8.81585 5.52143L11.7777 8.66884C12.0329 8.94724 12.0406 9.3571 11.8009 9.59683C11.5302 9.85976 11.1126 9.86749 10.8652 9.60456L7.99613 6.55768L5.12711 9.60456C4.87965 9.86749 4.45433 9.86749 4.1914 9.59683C3.9594 9.34937 3.9594 8.94724 4.2146 8.67658L7.17641 5.52916C7.67134 4.99557 8.32093 4.99557 8.81585 5.52143Z" fill="black"/>
</svg>
